<?xml version="1.0" encoding="utf-8"?>
<!-- Generator: Adobe Illustrator 16.0.3, SVG Export Plug-In . SVG Version: 6.00 Build 0)  -->
<!DOCTYPE svg PUBLIC "-//W3C//DTD SVG 1.1//EN" "http://www.w3.org/Graphics/SVG/1.1/DTD/svg11.dtd">
<svg version="1.1" id="Layer_1" xmlns="http://www.w3.org/2000/svg" xmlns:xlink="http://www.w3.org/1999/xlink" x="0px" y="0px"
	 width="960px" height="1024px" viewBox="960 0 960 1024" enable-background="new 960 0 960 1024" xml:space="preserve">
<title>Desktop HD Copy</title>
<desc>Created with Sketch.</desc>
<g id="Desktop-HD-Copy">
	<g id="Group" transform="translate(960.000000, -49.000000)">
		
			<radialGradient id="Rectangle-8_4_" cx="-511.2236" cy="944.4387" r="0.7019" gradientTransform="matrix(5.878305e-014 960 960 -5.878305e-014 -906180.75 491336)" gradientUnits="userSpaceOnUse">
			<stop  offset="0" style="stop-color:#00FF39"/>
			<stop  offset="1" style="stop-color:#00B9FF"/>
		</radialGradient>
		<path id="Rectangle-8" fill="url(#Rectangle-8_4_)" d="M0,49h960v1024H0V854.744C52.316,1004.747,167.982,1045.165,347,976
			c88-34-12.451-68.676,88-90c179-38,336,283,484-100c55.91-144.687-62-89-62-267c0-116.696,27.556-156.725,0-193
			c-79-104,129-75-91-201c-65.617-37.581-304.733-84.587-253,14c53,101-226.116,133.386-310,51C91,80,0,119.048,0,114
			C0,70.666,0,49,0,49z M611.5,873c-17.949,0-32.5-14.551-32.5-32.5c0-17.95,14.551-32.5,32.5-32.5s32.5,14.55,32.5,32.5
			C644,858.449,629.449,873,611.5,873z M579,270c-32.585,0-59-26.415-59-59s26.415-59,59-59s59,26.415,59,59S611.585,270,579,270z
			 M741.5,889c-9.665,0-17.5-7.836-17.5-17.5c0-9.665,7.835-17.5,17.5-17.5s17.5,7.835,17.5,17.5C759,881.164,751.165,889,741.5,889
			z M775.5,893c-5.247,0-9.5-4.254-9.5-9.5c0-5.247,4.253-9.5,9.5-9.5s9.5,4.253,9.5,9.5C785,888.746,780.747,893,775.5,893z
			 M858.42,725.168l-18.221,115.034L776,830.034L794.22,715L858.42,725.168z M187.484,211l140.817,87.992l-44.484,71.189L143,282.19
			L187.484,211z M640,362.07L738.732,270l92.07,98.732l-98.732,92.069L640,362.07z"/>
		
			<radialGradient id="Rectangle-8_5_" cx="-511.2236" cy="944.4387" r="0.7019" gradientTransform="matrix(5.878305e-014 960 960 -5.878305e-014 -906180.75 491335)" gradientUnits="userSpaceOnUse">
			<stop  offset="0" style="stop-color:#00FF39"/>
			<stop  offset="1" style="stop-color:#00B9FF"/>
		</radialGradient>
		<path id="Rectangle-8_1_" opacity="0.4961" fill="url(#Rectangle-8_5_)" enable-background="new    " d="M538.576,167.024
			C549.136,157.088,563.356,151,579,151c32.585,0,59,26.415,59,59s-26.415,59-59,59s-59-26.415-59-59
			c0-4.235,0.446-8.365,1.294-12.348C464.465,240.522,283.369,227.22,219,164C107,54,0,118.048,0,113c0-43.334,0-65,0-65h960v1024H0
			V853.744C52.982,995.747,168.982,1032.165,348,963c88-34-4.451-71.176,96-92.5c179-38,309,311.5,457-71.5
			c55.91-144.687-44-103-44-281c0-116.696,10.755-157.725-16.801-194C761.199,220,986,250,766,124
			c-65.617-37.581-285.733-79.587-234,19C536.589,151.744,538.665,159.749,538.576,167.024z M611.5,872
			c-17.949,0-32.5-14.551-32.5-32.5c0-17.95,14.551-32.5,32.5-32.5s32.5,14.55,32.5,32.5C644,857.449,629.449,872,611.5,872z
			 M741.5,888c-9.665,0-17.5-7.836-17.5-17.5c0-9.665,7.835-17.5,17.5-17.5s17.5,7.835,17.5,17.5C759,880.164,751.165,888,741.5,888
			z M775.5,892c-5.247,0-9.5-4.254-9.5-9.5c0-5.247,4.253-9.5,9.5-9.5s9.5,4.253,9.5,9.5C785,887.746,780.747,892,775.5,892z
			 M858.42,724.168l-18.221,115.034L776,829.034L794.22,714L858.42,724.168z M187.484,210l140.817,87.992l-44.484,71.189L143,281.19
			L187.484,210z M640,361.07L738.732,269l92.07,98.732l-98.732,92.069L640,361.07z"/>
		<text transform="matrix(1 0 0 1 260 567.0002)" fill="#404041" font-family="'Roboto-Light'" font-size="40">Design</text>
		<circle id="Oval-2" fill="#FFBA8E" cx="454" cy="140" r="140"/>
		<circle id="Oval-2_1_" fill="#7F00FF" fill-opacity="0.6" cx="594.5" cy="979.5" r="28.5"/>
		<circle id="Oval-2_2_" fill="#4500FF" cx="575.5" cy="1065.5" r="46.5"/>
		<circle id="Oval-2_3_" fill="#0028FF" cx="636" cy="1021" r="14"/>
		<circle id="Oval-2_4_" fill="#0200FF" fill-opacity="0.6" cx="839.5" cy="971.5" r="186.5"/>
	</g>
	
		<g id="Group_1_" transform="translate(447.000000, 530.000000) scale(-1, 1) translate(-447.000000, -530.000000) translate(-66.000000, -49.000000)" display="none">
		
			<radialGradient id="Rectangle-8_6_" cx="511.2236" cy="945.5627" r="0.7012" gradientTransform="matrix(-5.878305e-014 -960 960 -5.878305e-014 -907259.75 491336)" gradientUnits="userSpaceOnUse">
			<stop  offset="0" style="stop-color:#3800FF"/>
			<stop  offset="1" style="stop-color:#FF9D00"/>
		</radialGradient>
		<path id="Rectangle-8_2_" display="inline" fill="url(#Rectangle-8_6_)" d="M0,49h960v1024H0V854.744
			C52.316,1004.747,167.982,1045.165,347,976c88-34-12.451-68.676,88-90c179-38,336,283,484-100c55.91-144.687-62-89-62-267
			c0-116.696,27.555-156.725,0-193c-79-104,129-75-91-201c-65.617-37.581-304.733-84.587-253,14c53,101-226.116,133.386-310,51
			C91,80,0,119.048,0,114C0,70.666,0,49,0,49z M611.5,873c-17.949,0-32.5-14.551-32.5-32.5c0-17.95,14.551-32.5,32.5-32.5
			s32.5,14.55,32.5,32.5C644,858.449,629.449,873,611.5,873z M579,270c-32.585,0-59-26.415-59-59s26.415-59,59-59s59,26.415,59,59
			S611.585,270,579,270z M741.5,889c-9.665,0-17.5-7.836-17.5-17.5c0-9.665,7.835-17.5,17.5-17.5s17.5,7.835,17.5,17.5
			C759,881.164,751.165,889,741.5,889z M775.5,893c-5.247,0-9.5-4.254-9.5-9.5c0-5.247,4.253-9.5,9.5-9.5s9.5,4.253,9.5,9.5
			C785,888.746,780.747,893,775.5,893z M858.419,725.168L840.2,840.202L776,830.034L794.22,715L858.419,725.168z M640,362.07
			L738.733,270l92.07,98.732l-98.733,92.069L640,362.07z"/>
		
			<radialGradient id="Rectangle-8_7_" cx="511.5615" cy="944.7776" r="0.6574" gradientTransform="matrix(960 0 0 960 -490619.5 -906425.25)" gradientUnits="userSpaceOnUse">
			<stop  offset="0" style="stop-color:#FF00A9"/>
			<stop  offset="1" style="stop-color:#FF00CF;stop-opacity:0.6712"/>
		</radialGradient>
		<path id="Rectangle-8_3_" display="inline" opacity="0.4961" fill="url(#Rectangle-8_7_)" enable-background="new    " d="
			M538.576,167.024C549.135,157.088,563.357,151,579,151c32.585,0,59,26.415,59,59s-26.415,59-59,59s-59-26.415-59-59
			c0-4.235,0.446-8.365,1.294-12.348C464.465,240.522,283.369,227.22,219,164C107,54,0,118.048,0,113c0-43.334,0-65,0-65h960v1024H0
			V853.744C52.982,995.747,168.982,1032.165,348,963c88-34-4.451-71.176,96-92.5c179-38,309,311.5,457-71.5
			c55.91-144.687-44-103-44-281c0-116.696,10.755-157.725-16.8-194c-79-104,145.8-74-74.2-200c-65.617-37.581-285.733-79.587-234,19
			C536.589,151.744,538.665,159.749,538.576,167.024z M611.5,872c-17.949,0-32.5-14.551-32.5-32.5c0-17.95,14.551-32.5,32.5-32.5
			s32.5,14.55,32.5,32.5C644,857.449,629.449,872,611.5,872z M741.5,888c-9.665,0-17.5-7.836-17.5-17.5
			c0-9.665,7.835-17.5,17.5-17.5s17.5,7.835,17.5,17.5C759,880.164,751.165,888,741.5,888z M775.5,892c-5.247,0-9.5-4.254-9.5-9.5
			c0-5.247,4.253-9.5,9.5-9.5s9.5,4.253,9.5,9.5C785,887.746,780.747,892,775.5,892z M858.419,724.168L840.2,839.202L776,829.034
			L794.22,714L858.419,724.168z M640,361.07L738.733,269l92.07,98.732l-98.733,92.069L640,361.07z"/>
		
			<text transform="matrix(-1 0 0 1 311.2891 567.0002)" display="inline" fill="#404041" font-family="'Roboto-Light'" font-size="40">Art</text>
		<circle id="Oval-2_5_" display="inline" fill="#FFBA8E" cx="454" cy="140" r="140"/>
		<circle id="Oval-2_6_" display="inline" fill="#7F00FF" fill-opacity="0.6" cx="594.5" cy="979.5" r="28.5"/>
		<circle id="Oval-2_7_" display="inline" fill="#4500FF" cx="575.5" cy="1065.5" r="46.5"/>
		<circle id="Oval-2_8_" display="inline" fill="#0028FF" cx="636" cy="1021" r="14"/>
		<circle id="Oval-2_9_" display="inline" fill="#0200FF" fill-opacity="0.6" cx="839.5" cy="971.5" r="186.5"/>
	</g>
</g>
</svg>
