<?xml version="1.0" encoding="UTF-8"?>
<svg width="24px" height="24px" viewBox="0 0 24 24" version="1.1" xmlns="http://www.w3.org/2000/svg" xmlns:xlink="http://www.w3.org/1999/xlink">
    <!-- Generator: Sketch 48.2 (47327) - http://www.bohemiancoding.com/sketch -->
    <title>02 asset/01 icon/01 youtube</title>
    <desc>Created with Sketch.</desc>
    <defs></defs>
    <g id="Symbols" stroke="none" stroke-width="1" fill="none" fill-rule="evenodd">
        <g id="02-asset/01-icon/01-youtube" fill="#062B31" fill-rule="nonzero">
            <path d="M12,5.09054545 C12.0501818,5.09054545 17.0007273,5.09054545 20.2690909,5.32618182 L20.4130909,5.33927273 C20.8494545,5.37854545 21.3207273,5.42436364 21.7832727,5.90218182 C22.0014545,6.12036364 22.2501818,6.89272727 22.3352727,7.44472727 C22.4731982,8.65521925 22.5460303,9.8722437 22.5534545,11.0905455 L22.5534545,12.8883636 C22.5457658,14.1073821 22.4729347,15.3251187 22.3352727,16.5363636 C22.2545455,17.0752727 21.9992727,17.8585455 21.7854545,18.0636364 C21.3250909,18.5392727 20.8429091,18.5850909 20.4174545,18.6265455 L20.2690909,18.6418182 C17.0574545,18.86 12.2203636,18.8818182 12.0021818,18.8818182 C11.7512727,18.8818182 5.89309091,18.8229091 4.02327273,18.6636364 C3.912,18.6461818 3.80509091,18.6309091 3.67854545,18.6178182 C3.18109091,18.5589091 2.616,18.4912727 2.21018182,18.0701818 C1.992,17.852 1.74327273,17.0818182 1.66036364,16.532 C1.52243814,15.321508 1.44960603,14.1044836 1.44218182,12.8861818 L1.44218182,11.1058182 C1.4499358,9.88752732 1.52276685,8.6705205 1.66036364,7.46 C1.74545455,6.90363636 1.99854545,6.13127273 2.21236364,5.91745455 C2.67490909,5.43963636 3.15709091,5.396 3.58254545,5.35454545 L3.72654545,5.34145455 C6.99927273,5.108 11.9454545,5.10581818 11.9934545,5.10581818 L12,5.10581818 L12,5.09054545 Z M12,3.68763636 C12,3.68763636 6.96218182,3.68763636 3.60436364,3.92763636 C3.13527273,3.98218182 2.11418182,3.98654545 1.20436364,4.92909091 C0.486545455,5.64909091 0.250909091,7.28327273 0.250909091,7.28327273 C0.0983414185,8.55199199 0.0145824501,9.82804167 0,11.1058182 L0,12.9036364 C0.010383476,14.1863134 0.0905017312,15.4674771 0.24,16.7414545 C0.24,16.7414545 0.473454545,18.3756364 1.19345455,19.0934545 C2.10763636,20.036 3.30545455,20.0076364 3.84,20.108 C5.76,20.2890909 12,20.3458182 12,20.3458182 C12,20.3458182 17.0421818,20.3458182 20.4021818,20.0992727 C20.8712727,20.0447273 21.8945455,20.0381818 22.8021818,19.0956364 C23.52,18.3778182 23.7556364,16.7436364 23.7556364,16.7436364 C23.9065631,15.4697358 23.9881379,14.1885734 24,12.9058182 L24,11.108 C23.9895821,9.82532418 23.909464,8.54416231 23.76,7.27018182 C23.76,7.27018182 23.5265455,5.636 22.8065455,4.916 C21.8945455,3.97345455 20.8712727,3.96690909 20.4065455,3.91454545 C17.0421818,3.67236364 12,3.67236364 12,3.67236364 L12,3.68763636 Z" id="Shape"></path>
            <polygon id="Shape" points="9.84654545 8.43309091 9.84654545 15.5850909 15.9534545 12.0090909"></polygon>
        </g>
    </g>
</svg>