<?xml version="1.0" encoding="UTF-8"?>
<svg width="24px" height="24px" viewBox="0 0 24 24" version="1.1" xmlns="http://www.w3.org/2000/svg" xmlns:xlink="http://www.w3.org/1999/xlink">
    <!-- Generator: Sketch 48.2 (47327) - http://www.bohemiancoding.com/sketch -->
    <title>02 asset/01 icon/02 facebook</title>
    <desc>Created with Sketch.</desc>
    <defs></defs>
    <g id="Symbols" stroke="none" stroke-width="1" fill="none" fill-rule="evenodd">
        <g id="02-asset/01-icon/02-facebook" fill="#062B31" fill-rule="nonzero">
            <path d="M9.5028,6.5946 L9.5028,9.7656 L6.0231,9.7656 L6.0231,13.68 L9.5028,13.68 L9.5028,22.5 L13.6209,22.5 L13.6209,13.68 L17.13,13.68 L17.55,9.7677 L13.6209,9.7677 L13.6209,6.5946 C13.6209,6.0339 14.064,5.7546 14.2509,5.5824 C14.5806,5.301 16.1724,5.2569 16.1724,5.2569 L17.7327,5.2569 L17.7327,1.71 C16.9203128,1.58863249 16.1010948,1.51849396 15.2799,1.5 C9.3831,1.5 9.5028,6.5946 9.5028,6.5946 Z M8.20815736,5.49449306 C8.33785031,4.77229922 8.57654026,4.05123564 8.95606326,3.36769978 C10.0878143,1.32937158 12.1933539,0.1 15.3114211,0.100354895 C16.1913189,0.12017089 17.0690984,0.195323251 17.9395589,0.32536669 L19.1327,0.503617378 L19.1327,6.6569 L17.7327,6.6569 L16.2111714,6.65636303 C16.0040857,6.66210023 15.6714698,6.68189252 15.35304,6.72109307 C15.2213578,6.73730392 15.1077463,6.75541613 15.0209,6.77362667 L15.0209,8.3677 L19.1083395,8.3677 L18.387749,15.08 L15.0209,15.08 L15.0209,23.9 L8.1028,23.9 L8.1028,15.08 L4.6231,15.08 L4.6231,8.3656 L8.1028,8.3656 L8.1028,6.6048425 C8.09957121,6.33033754 8.12643628,5.94955598 8.20815736,5.49449306 Z M14.9693497,6.78520652 C14.9666706,6.78585471 14.9640279,6.78650254 14.961422,6.78714993 C14.9654119,6.78615872 14.9705403,6.78457183 14.978059,6.78102091 L14.9693497,6.78520652 Z M14.9582176,6.82180227 C14.9567769,6.82313277 14.9555777,6.82426391 14.95464,6.82517921 C14.9569881,6.82288704 14.9599383,6.81915443 14.9632812,6.81410867 L14.9582176,6.82180227 Z" id="Shape"></path>
        </g>
    </g>
</svg>