<?xml version="1.0" encoding="UTF-8"?>
<svg width="24px" height="24px" viewBox="0 0 24 24" version="1.1" xmlns="http://www.w3.org/2000/svg" xmlns:xlink="http://www.w3.org/1999/xlink">
    <!-- Generator: Sketch 48.2 (47327) - http://www.bohemiancoding.com/sketch -->
    <title>02 asset/01 icon/03 dribble</title>
    <desc>Created with Sketch.</desc>
    <defs></defs>
    <g id="Symbols" stroke="none" stroke-width="1" fill="none" fill-rule="evenodd">
        <g id="02-asset/01-icon/03-dribble">
            <circle id="Oval" cx="12" cy="12.1111111" r="12"></circle>
            <path d="M12,1.55555556 C17.8296724,1.55555556 22.5555556,6.28143875 22.5555556,12.1111111 C22.5555556,17.9407835 17.8296724,22.6666667 12,22.6666667 C6.17032764,22.6666667 1.44444444,17.9407835 1.44444444,12.1111111 C1.4505686,6.28397735 6.17286624,1.56167972 12,1.55555556 Z M12,0.111111111 C5.372583,0.111111111 7.89491929e-16,5.48369411 0,12.1111111 C-7.89491929e-16,18.7385281 5.372583,24.1111111 12,24.1111111 C18.627417,24.1111111 24,18.7385281 24,12.1111111 C24,5.48369411 18.627417,0.111111111 12,0.111111111 Z" id="Shape" fill="#062B31" fill-rule="nonzero"></path>
            <path d="M17.962103,21.7351274 L16.517897,22.1404282 C14.6193781,15.3754467 12.5896278,10.1728056 10.5663025,6.3356537 C9.86392016,5.00361492 9.21470833,3.9388933 8.63582688,3.11675466 C8.29741189,2.63613116 8.06361779,2.34862899 7.95149741,2.22944053 L9.04405814,1.20167058 C9.20513221,1.37289879 9.48357769,1.71530982 9.86229812,2.2531759 C10.4786424,3.1285199 11.1612534,4.24801703 11.8931419,5.63601297 C13.9677333,9.57038884 16.0358997,14.8714977 17.962103,21.7351274 Z" id="Shape" fill="#062B31" fill-rule="nonzero"></path>
            <path d="M0.363650373,11.2936265 L0.498571849,9.7997068 C0.615051894,9.81022654 0.843485119,9.82659653 1.16996045,9.84315361 C4.12940693,9.99324094 7.53705457,9.82031886 10.7548217,9.07563965 C14.672054,8.16908507 17.6212323,6.53552352 19.2440157,4.06193161 L20.4982065,4.88473506 C18.6269562,7.73706257 15.351075,9.5515861 11.0930239,10.5370154 C7.71710111,11.3182962 4.18052193,11.497761 1.09398609,11.3412283 C0.747219563,11.3236422 0.499204582,11.3058689 0.363650373,11.2936265 Z" id="Shape" fill="#062B31" fill-rule="nonzero"></path>
            <path d="M5.05589852,20.5563621 L3.71299037,19.8880824 C3.85533236,19.6020461 4.13429162,19.1257315 4.5585087,18.5223184 C5.25850033,17.5266391 6.12057618,16.5327125 7.15415319,15.6047517 C11.254834,11.9230991 16.735769,10.3310729 23.6590912,12.0111534 L23.3053532,13.4688466 C16.8835089,11.9104596 11.9028182,13.3571818 8.15625212,16.7209048 C7.21171002,17.5689288 6.42336888,18.4778432 5.78560774,19.3850048 C5.5637439,19.7005875 5.37705461,19.9923664 5.22476576,20.2523951 C5.13607049,20.4038396 5.08005587,20.5078179 5.05589852,20.5563621 Z" id="Shape" fill="#062B31" fill-rule="nonzero"></path>
        </g>
    </g>
</svg>