<?xml version="1.0" encoding="UTF-8"?>
<svg width="24px" height="24px" viewBox="0 0 24 24" version="1.1" xmlns="http://www.w3.org/2000/svg" xmlns:xlink="http://www.w3.org/1999/xlink">
    <!-- Generator: Sketch 48.2 (47327) - http://www.bohemiancoding.com/sketch -->
    <title>02 asset/01 icon/04 instagram</title>
    <desc>Created with Sketch.</desc>
    <defs></defs>
    <g id="Symbols" stroke="none" stroke-width="1" fill="none" fill-rule="evenodd">
        <g id="02-asset/01-icon/04-instagram" fill="#062B31" fill-rule="nonzero">
            <path d="M16.6530612,1.95918367 C19.6286362,1.95918367 22.0408163,4.3713638 22.0408163,7.34693878 L22.0408163,16.6530612 C22.0408163,19.6286362 19.6286362,22.0408163 16.6530612,22.0408163 L7.34693878,22.0408163 C4.3713638,22.0408163 1.95918367,19.6286362 1.95918367,16.6530612 L1.95918367,7.34693878 C1.95918367,4.3713638 4.3713638,1.95918367 7.34693878,1.95918367 L16.6530612,1.95918367 Z M16.6530612,-5.80034886e-15 L7.34693878,-5.80034886e-15 C3.29436049,0.012103351 0.012103351,3.29436049 -7.10542736e-15,7.34693878 L-7.10542736e-15,16.6530612 C0.012103351,20.7056395 3.29436049,23.9878966 7.34693878,24 L16.6530612,24 C20.7056395,23.9878966 23.9878966,20.7056395 24,16.6530612 L24,7.34693878 C23.9878966,3.29436049 20.7056395,0.012103351 16.6530612,-5.80034886e-15 Z" id="Shape"></path>
            <path d="M18.4016327,4.16326531 C17.6266306,4.16326531 16.9983673,4.79152858 16.9983673,5.56653061 C16.9983673,6.34153264 17.6266306,6.96979592 18.4016327,6.96979592 C19.1766347,6.96979592 19.804898,6.34153264 19.804898,5.56653061 C19.804898,5.19436151 19.6570544,4.83743549 19.3938911,4.5742722 C19.1307278,4.3111089 18.7738018,4.16326531 18.4016327,4.16326531 Z" id="Shape"></path>
            <path d="M12.0661224,7.70693878 C13.8178068,7.70594828 15.3975138,8.760506 16.0683119,10.3786619 C16.7391101,11.9968179 16.3688268,13.859734 15.1301988,15.0983621 C13.8915707,16.3369901 12.0286546,16.7072734 10.4104987,16.0364752 C8.79234273,15.365677 7.73778502,13.78597 7.73877551,12.0342857 C7.74281997,9.64603527 9.67787201,7.71098324 12.0661224,7.70693878 Z M12.0661224,5.7477551 C8.59409824,5.75451555 5.78443918,8.57367145 5.78939463,12.0456987 C5.79435008,15.517726 8.61204495,18.3288502 12.0840743,18.3256998 C15.5561037,18.3225493 18.3686924,15.5063162 18.3673469,12.0342857 C18.3666999,10.3646453 17.7021454,8.76378987 16.5201539,7.58455466 C15.3381624,6.40531945 13.7357598,5.74450412 12.0661224,5.7477551 Z" id="Shape"></path>
        </g>
    </g>
</svg>