<?xml version="1.0" encoding="UTF-8"?>
<svg width="24px" height="24px" viewBox="0 0 24 24" version="1.1" xmlns="http://www.w3.org/2000/svg" xmlns:xlink="http://www.w3.org/1999/xlink">
    <!-- Generator: Sketch 48.2 (47327) - http://www.bohemiancoding.com/sketch -->
    <title>02 asset/01 icon/05 linkedin</title>
    <desc>Created with Sketch.</desc>
    <defs></defs>
    <g id="Symbols" stroke="none" stroke-width="1" fill="none" fill-rule="evenodd">
        <g id="02-asset/01-icon/05-linkedin" fill="#062B31" fill-rule="nonzero">
            <path d="M21.8827723,1.54455446 C22.067815,1.54455446 22.2178218,1.69456123 22.2178218,1.87960396 L22.2178218,21.8851485 C22.2178218,22.0701912 22.067815,22.220198 21.8827723,22.220198 L1.87960396,22.220198 C1.69456123,22.220198 1.54455446,22.0701912 1.54455446,21.8851485 L1.54455446,1.87960396 C1.54455446,1.69456123 1.69456123,1.54455446 1.87960396,1.54455446 L21.8851485,1.54455446 L21.8827723,1.54455446 Z M21.8851485,1.05526329e-16 L1.87960396,1.05526329e-16 C0.841527357,-3.16578141e-16 0,0.841527357 0,1.87960396 L0,21.8851485 C0.00131118752,22.922297 0.842454628,23.7623771 1.87960396,23.7623762 L21.8851485,23.7623762 C22.9232251,23.7623762 23.7647525,22.9208489 23.7647525,21.8827723 L23.7647525,1.87960396 C23.7647529,1.38069001 23.5663976,0.902244927 23.2133894,0.549682421 C22.8603811,0.197119915 22.3816858,-0.00063073824 21.8827723,1.05526329e-16 L21.8851485,1.05526329e-16 Z" id="Shape"></path>
            <rect id="Rectangle-path" x="5.52950495" y="8.64950495" width="2.78732673" height="9.9160396"></rect>
            <path d="M15.0249505,8.64950495 C12.6368317,8.64950495 12.5940594,10.030099 12.5940594,10.1251485 L12.5940594,8.64950495 L9.74257426,8.64950495 L9.74257426,18.5655446 L12.5940594,18.5655446 L12.5940594,12.9053465 C12.5940594,12.4633663 12.7247525,11.5128713 14.0744554,11.5128713 C15.4241584,11.5128713 15.4122772,12.8744554 15.4122772,12.8744554 L15.4122772,18.5774257 L18.2328713,18.5774257 L18.2328713,12.3992079 C18.2328713,9.46930693 16.6336634,8.64950495 15.0249505,8.64950495 Z" id="Shape"></path>
            <circle id="Oval" cx="6.9219802" cy="6.58930693" r="1.39247525"></circle>
        </g>
    </g>
</svg>