<?xml version="1.0" encoding="UTF-8"?>
<svg width="24px" height="24px" viewBox="0 0 24 24" version="1.1" xmlns="http://www.w3.org/2000/svg" xmlns:xlink="http://www.w3.org/1999/xlink">
    <!-- Generator: Sketch 48.2 (47327) - http://www.bohemiancoding.com/sketch -->
    <title>02 asset/01 icon/06 messenger</title>
    <desc>Created with Sketch.</desc>
    <defs></defs>
    <g id="Symbols" stroke="none" stroke-width="1" fill="none" fill-rule="evenodd">
        <g id="02-asset/01-icon/06-messenger" fill="#062B31" fill-rule="nonzero">
            <path d="M12,1.56 C17.76,1.56 22.44,5.8224 22.44,11.0616 C22.44,16.3008 17.76,20.5656 12,20.5656 C11.0522923,20.5658242 10.1082394,20.4481199 9.1896,20.2152 L8.6184,20.0712 L8.0952,20.34 L5.9352,21.4512 L5.9352,18.8256 L5.3208,18.3456 C2.928,16.5432 1.56,13.884 1.56,11.0616 C1.56,5.8224 6.24,1.56 12,1.56 Z M12,0 C5.3736,0 0,4.9536 0,11.0616 C0,14.4984 1.6992,17.568 4.3656,19.5984 L4.3656,24 L8.8056,21.7248 C9.84960269,21.9906504 10.9226802,22.125289 12,22.1256 C18.6264,22.1256 24,17.172 24,11.064 C24,4.956 18.6264,0 12,0 Z" id="Shape"></path>
            <polygon id="Shape" points="4.6056 14.4144 10.7448 7.8288 13.8624 10.968 19.3944 7.944 13.2312 14.6712 10.2072 11.3664"></polygon>
        </g>
    </g>
</svg>