<?xml version="1.0" encoding="utf-8"?>
<!-- Generator: Adobe Illustrator 16.0.3, SVG Export Plug-In . SVG Version: 6.00 Build 0)  -->
<!DOCTYPE svg PUBLIC "-//W3C//DTD SVG 1.1//EN" "http://www.w3.org/Graphics/SVG/1.1/DTD/svg11.dtd">
<svg version="1.1" id="Layer_1" xmlns="http://www.w3.org/2000/svg" xmlns:xlink="http://www.w3.org/1999/xlink" x="0px" y="0px"
	 width="26.626px" height="43.313px" viewBox="0 0 26.626 43.313" enable-background="new 0 0 26.626 43.313" xml:space="preserve">
<path fill="#FFFFFF" d="M4.742,32.949c0,1.978,0.207,3.486,0.621,4.528c0.414,1.04,1.16,2.024,2.234,2.949
	c1.072,0.925,2.369,1.637,3.891,2.136c1.521,0.5,3.27,0.75,5.248,0.75c1.743,0,3.364-0.176,4.864-0.524
	c1.499-0.351,3.175-0.96,5.025-1.831v-6.812c-2.17,1.426-4.352,2.14-6.544,2.14c-1.233,0-2.33-0.288-3.287-0.863
	c-0.723-0.424-1.218-0.994-1.484-1.707c-0.266-0.713-0.398-2.324-0.398-4.836V17.77h10.285v-6.799H14.912V0H8.776
	C8.5,2.232,7.996,4.068,7.265,5.513c-0.73,1.445-1.7,2.683-2.91,3.714C3.146,10.256,1.695,11.047,0,11.6v6.17h4.742V32.949z"/>
</svg>
