<svg id="Layer_1" data-name="Layer 1" xmlns="http://www.w3.org/2000/svg" xmlns:xlink="http://www.w3.org/1999/xlink" viewBox="0 0 24 16"><defs><style>.cls-1{fill:#fff;}.cls-2{fill:#8296ae;}.cls-3{mask:url(#mask);}.cls-4{fill:url(#linear-gradient);}</style><mask id="mask" x="0" y="-17.92" width="36.59" height="36.61" maskUnits="userSpaceOnUse"><g id="mask-2"><path id="path-1" class="cls-1" d="M3,0H14.76a3,3,0,0,1,2.12.88l5,5a3,3,0,0,1,0,4.24l-5,5a3,3,0,0,1-2.12.88H3a3,3,0,0,1-3-3V3A3,3,0,0,1,3,0Z"/></g></mask><linearGradient id="linear-gradient" x1="-1145.3" y1="133.82" x2="-1144.38" y2="133.82" gradientTransform="matrix(23, 0, 0, -29, 26351.41, 3881.28)" gradientUnits="userSpaceOnUse"><stop offset="0" stop-color="#93b0d3"/><stop offset="1" stop-color="#8296ae"/></linearGradient></defs><title>Artboard 1</title><g id="tag"><g id="bg"><path id="path-1-2" data-name="path-1" class="cls-2" d="M3,0H14.76a3,3,0,0,1,2.12.88l5,5a3,3,0,0,1,0,4.24l-5,5a3,3,0,0,1-2.12.88H3a3,3,0,0,1-3-3V3A3,3,0,0,1,3,0Z"/></g><g class="cls-3"><rect id="mask-2-2" data-name="mask" class="cls-4" x="7.88" y="-14.12" width="23" height="29" transform="translate(2.4 9.74) rotate(-30)"/></g></g></svg>